<?xml version="1.0" encoding="utf-8"?>
<!-- Generator: Adobe Illustrator 24.0.0, SVG Export Plug-In . SVG Version: 6.00 Build 0)  -->
<svg version="1.1" id="Layer_1" xmlns="http://www.w3.org/2000/svg" xmlns:xlink="http://www.w3.org/1999/xlink" x="0px" y="0px"
	 viewBox="0 0 200 200" style="enable-background:new 0 0 200 200;" xml:space="preserve">
<style type="text/css">
	.st0{fill:#97C93F;}
	.st1{fill:#303030;}
</style>
<path class="st0" d="M46,121.7c-2.3,2.3-4.6,4.5-6.8,6.8c-1.1,1.1-2.3,2-3.7,2.5c-4,1.4-7.7,0.8-10.7-2.1
	c-7.3-7.2-14.6-14.5-21.8-21.8c-3.9-3.9-3.9-10.2,0-14.2c7.2-7.3,14.5-14.5,21.7-21.7c3.9-3.9,10.2-3.9,14.1,0
	c4.9,4.8,9.8,9.7,14.6,14.6c3.8,3.9,3.9,10,0.1,14c-4.5,4.6-9.1,9.1-13.6,13.7c-0.2,0.2-0.3,0.3-0.5,0.5c-0.4,0.3-0.4,0.5-0.1,0.9
	c2.1,2.1,4.2,4.2,6.3,6.3C45.8,121.2,46.1,121.4,46,121.7 M46,92.9c-0.1-0.3-0.3-0.4-0.4-0.5c-4.5-4.5-9-9-13.4-13.4
	c-0.3-0.3-0.5-0.4-0.9,0c-6.9,6.9-13.8,13.8-20.7,20.7c-0.4,0.3-0.3,0.5,0,0.9c6.9,6.9,13.8,13.8,20.7,20.7c0.3,0.3,0.5,0.4,0.9,0
	c2.1-2.1,4.2-4.2,6.3-6.3c0.3-0.3,0.4-0.5,0-0.9c-2.1-2.1-4.2-4.2-6.3-6.2c-0.4-0.4-0.4-0.6,0-1c4.5-4.4,8.9-8.9,13.4-13.4
	C45.7,93.2,45.9,93,46,92.9"/>
<path class="st1" d="M69.6,100.1c0-6,0-12,0-18c0-0.6,0.2-0.7,0.7-0.7c5,0,9.9,0,14.9,0c3.1,0,6,0.8,8.5,2.8c3,2.4,4.4,5.6,4.7,9.4
	c0.3,4.2-1,7.9-4.2,10.8c-2.4,2.1-5.2,3.1-8.4,3.2c-3,0.1-6.1,0-9.1,0c-0.6,0-0.8,0.1-0.8,0.7c0,3.3,0,6.6,0,9.9
	c0,0.5-0.1,0.7-0.6,0.6c-1.7,0-3.3,0-5,0c-0.5,0-0.7-0.1-0.7-0.7C69.6,112.1,69.6,106.1,69.6,100.1 M75.8,94.5c0,2.4,0,4.7,0,7.1
	c0,0.5,0.1,0.6,0.6,0.6c2.9,0,5.8,0,8.7,0c0.7,0,1.4-0.1,2.2-0.3c3.1-0.9,5.1-3.7,5.2-7.3c0.1-4.2-2.7-7.9-7.6-7.8
	c-2.8,0.1-5.6,0-8.3,0c-0.5,0-0.6,0.2-0.6,0.6C75.8,89.8,75.8,92.1,75.8,94.5"/>
<path class="st1" d="M135.7,113.9c-0.4,0.5-0.7,1.1-1.1,1.6c-2.1,2.6-4.8,3.8-8.1,3.7c-5.8-0.2-9.9-3.8-11-9.7c-0.6-3-0.6-6,0.6-9
	c1.6-4.2,4.9-6.6,9.2-7.5c5.1-1.1,10-0.2,14.8,1.8c0.4,0.2,0.4,0.4,0.4,0.7c0,5.4,0,10.7,0,16.1c0,0.4,0,0.9,0,1.3
	c0.1,1.3,0.7,1.9,2,1.9c0.6,0,0.7,0.2,0.7,0.7c0,0.9,0,1.8,0,2.8c0,0.2,0,0.5-0.3,0.5c-1.4,0.2-2.8,0.3-4.2,0
	c-1.8-0.4-2.9-1.8-3-3.7C135.7,114.7,135.7,114.3,135.7,113.9 M134.8,102.7c0-1.4,0-2.6,0-3.8c0-0.4-0.1-0.6-0.5-0.7
	c-2.1-0.8-4.3-1.1-6.5-0.7c-3.2,0.4-5.4,2.1-6.3,5.2c-0.7,2.2-0.6,4.5,0.1,6.7c1.4,4.4,5.4,5.4,8.5,4.5c2.5-0.7,3.7-2.6,4.4-5
	C135,106.7,134.8,104.6,134.8,102.7"/>
<path class="st1" d="M176.3,113.8h3.6c3,0,5.9,0,8.9,0c0.4,0,0.6,0.1,0.6,0.5c0,1.3,0,2.7,0,4c0,0.4-0.1,0.5-0.5,0.5
	c-6.8,0-13.7,0-20.5,0c-0.5,0-0.7-0.7-0.4-1.3c0.1-0.1,0.2-0.3,0.2-0.4c4-6.3,8.1-12.7,12.4-18.8c0.1-0.1,0.2-0.3,0.3-0.5h-0.7
	c-3.7,0-7.3,0-11,0c-0.5,0-0.6-0.1-0.6-0.6c0-1.2,0-2.4,0-3.7c0-0.4,0.1-0.5,0.5-0.5c6.5,0,13.1,0,19.6,0c0.5,0,0.6,0.2,0.5,0.6
	c0,0.3-0.2,0.4-0.3,0.6c-4.1,6.4-8.2,12.8-12.6,19C176.6,113.4,176.5,113.6,176.3,113.8"/>
<path class="st1" d="M149.7,104.2c0-1.9,0-3.8,0-5.7c0-0.5-0.1-0.7-0.6-0.6c-1.4,0-2.7,0-4.1,0c-0.4,0-0.6-0.1-0.6-0.5
	c0-1.2,0-2.5,0-3.7c0-0.4,0.2-0.5,0.6-0.5c1.3,0,2.7,0,4,0c0.6,0,0.7-0.2,0.7-0.7c0-1.7,0-3.3,0-5c0-0.5,0.2-0.6,0.6-0.6
	c1.5,0,3,0,4.5,0c0.6,0,0.7,0.2,0.6,0.7c0,1.6,0,3.3,0,4.9c0,0.6,0.2,0.7,0.7,0.7c2.5,0,5,0,7.6,0c0.5,0,0.6,0.2,0.6,0.6
	c0,1.2,0,2.4,0,3.6c0,0.4-0.1,0.5-0.5,0.5c-2.6,0-5.2,0-7.8,0c-0.4,0-0.6,0.1-0.6,0.6c0,3.6,0,7.1,0,10.7c0,1.2,0.1,2.3,0.6,3.4
	c0.7,1.8,2.3,2.7,4.4,2.6c1.3-0.1,2.6-0.4,3.9-0.8c0.4-0.1,0.5-0.1,0.6,0.4c0.1,1.2,0.3,2.3,0.4,3.5c0,0.2,0.1,0.4-0.2,0.5
	c-2.9,0.8-5.9,1.4-9,0.7c-3.4-0.8-5.3-3.1-6.1-6.5c-0.4-1.9-0.4-3.7-0.4-5.6C149.7,106.1,149.7,105.1,149.7,104.2"/>
<path class="st1" d="M102.2,96.5c0-4.9,0-9.7,0-14.6c0-0.5,0.1-0.6,0.6-0.6c1.5,0,3.1,0,4.6,0c0.5,0,0.6,0.1,0.6,0.6
	c0,9,0,18.1,0,27.1c0,1,0,2.1,0.3,3.1c0.4,1.6,1.3,2.3,3,2.4c0.6,0,1.3,0,1.9-0.1c0.3-0.1,0.4,0,0.5,0.4c0,1.2,0.1,2.5,0.2,3.7
	c0,0.3,0,0.4-0.3,0.4c-2,0.3-4,0.5-6,0.1c-2.8-0.6-4.3-2.6-4.8-5.3c-0.3-1.5-0.4-3.1-0.4-4.7C102.2,105,102.2,100.7,102.2,96.5"/>
<path class="st1" d="M199.4,106c0,4.1,0,8.1,0,12.2c0,0.5-0.1,0.7-0.7,0.7c-1.6,0-3.1,0-4.7,0c-0.4,0-0.5-0.1-0.5-0.5
	c0-8.3,0-16.5,0-24.8c0-0.4,0.1-0.5,0.5-0.5c1.6,0,3.2,0,4.7,0c0.6,0,0.6,0.2,0.6,0.7C199.4,97.8,199.4,101.9,199.4,106"/>
<path class="st1" d="M196.5,88.2c-2.1,0-3.6-1.4-3.6-3.5c0-2,1.5-3.5,3.6-3.4c2.1,0,3.5,1.4,3.4,3.5C200,86.8,198.6,88.2,196.5,88.2
	"/>
</svg>
