<svg id="Capa_1" data-name="Capa 1" xmlns="http://www.w3.org/2000/svg" viewBox="0 0 1196.27 1769.16"><defs><style>.cls-1{fill:#eb5d1c;}.cls-2{fill:#fff;}</style></defs><title>LogoSantimartz</title><path class="cls-1" d="M401.86,112.75c2.33.1,4.66.3,7,.3H755c.29,1.56.61,2.8.73,4.06s0,2.67,0,4q0,169.25,0,338.49c0,2.46-.2,4.92-.32,7.9-2.86.14-5.3.36-7.74.36q-114.27,0-228.52,0-58.63,0-117.27-.07Z" transform="translate(-401.86 -112.75)"/><path class="cls-2" d="M483.22,544H832.68V178.6c4.19-.84,8-1.69,11.92-2.38,35-6.23,70.29-10.78,105.87-12.53a1109.62,1109.62,0,0,1,118.2,1q24,1.38,48,3.12A673.89,673.89,0,0,1,1194,178.44c90.6,17.41,177.29,47.13,262,83.24,6.6,2.81,13.21,5.64,19.73,8.63,26.49,12.14,40,33.4,42.75,61.89,1.38,14.49-.81,28.64-5.45,42.45Q1485.4,456.81,1458,539a50.46,50.46,0,0,1-17.27,24.66c-20.19,15.62-42.88,20-67.61,14.36a45.58,45.58,0,0,1-6.58-2.41c-55.31-22.23-111.13-43-168.26-60.16-21-6.31-42.51-10.13-64.11-13.52a692.26,692.26,0,0,0-85.77-7.71c-30.63-1-61.12.09-91,7.71a158.35,158.35,0,0,0-39.93,15.77c-24.48,14-41.59,34.29-50.86,61a162.37,162.37,0,0,0-7.85,71.16c2.73,25.74,14.51,47,33.48,64.31a158.57,158.57,0,0,0,16.9,13.32c32.19,22.14,66.65,40.21,102.64,55.17,43.77,18.2,87.9,35.54,131.87,53.26,27.4,11,55.06,21.49,82.14,33.27a651.5,651.5,0,0,1,131.55,77.11c48.09,36.14,86.09,81.2,117.1,132.52,23.1,38.24,37.63,79.57,46.09,123.23,8.49,43.85,10.73,88.18,10,132.73a708.48,708.48,0,0,1-10.17,110.7c-.29,1.62-.74,3.22-1.23,5.34H1169v355.34c-5.52,1.3-10.66,2.59-15.83,3.74a793.44,793.44,0,0,1-91,14.32A967.76,967.76,0,0,1,944.15,1829c-40.31-.83-79.66-7.92-118.19-19.65-69.52-21.17-131.25-56.54-187.42-102.32-57.18-46.61-98.64-104.81-128.28-171.89-18.84-42.65-32-87.1-41.23-132.74a775.31,775.31,0,0,1-12.73-91.27c-.83-10.15-2-20.35-.32-30.52a48.83,48.83,0,0,1,3.08-11.53c2.4-5.53,6.8-7.27,12.36-4.95a35.8,35.8,0,0,1,9.77,5.92,134.06,134.06,0,0,1,14.1,14.2c58.47,70.11,129.66,123.88,210.5,165.58,24.27,12.51,50,20.39,76.05,27.64a634,634,0,0,0,91.25,18.2c34.52,4.33,69.19,6.38,104,5,28.67-1.1,56.84-5.4,83.79-15.75a180,180,0,0,0,36.84-19.08c21-14.26,35-33.8,42.63-57.79a174.7,174.7,0,0,0,6.1-83.69c-5-29.07-20-52.54-42.73-71-18.1-14.64-37.81-26.92-58-38.41-30.69-17.45-62.79-32-95.54-45-48.7-19.38-97.58-38.28-146.39-57.38C740.35,1087.85,682.3,1054,631.07,1009A473.64,473.64,0,0,1,512.8,850.75c-14.42-31.1-23-64.06-28.69-97.8-7.77-46.52-9.42-93.36-7.33-140.42q1.38-31.32,5.39-62.4c.23-1.82.61-3.61,1.05-6.17" transform="translate(-401.86 -112.75)"/><path class="cls-1" d="M1598.14,1527.86v353.06c-3.81,1.09-345.34,1.38-351.22.37-1-3.62-1.33-347.37-.29-353.22,3.61-1.1,345.12-1.41,351.51-.21" transform="translate(-401.86 -112.75)"/></svg>