<?xml version="1.0" encoding="utf-8"?>
<!-- Generator: Adobe Illustrator 24.0.0, SVG Export Plug-In . SVG Version: 6.00 Build 0)  -->
<svg version="1.1" id="Capa_1" xmlns="http://www.w3.org/2000/svg" xmlns:xlink="http://www.w3.org/1999/xlink" x="0px" y="0px"
	 viewBox="0 0 19.7 20" style="enable-background:new 0 0 19.7 20;" xml:space="preserve">
<style type="text/css">
	.st0{opacity:0.15;}
	.st1{fill:#7F7F7F;}
</style>
<g class="st0">
	<path class="st1" d="M0.8,9.7c-0.2,0-0.3,0-0.4,0c0-1.4,0-2.8,0-4.3c0.1,0,0.2,0,0.3,0c0.1,0,0.1,0.1,0.1,0.2C1,6.3,1.1,7,1.2,7.7
		c0,0,0,0.1,0.1,0.2c0.1-0.6,0.2-1.1,0.4-1.7c0-0.1,0.1-0.3,0.1-0.4c0.1-0.3,0.1-0.3,0.4-0.3c0,0,0.1,0,0.1,0c0,1.4,0,2.8,0,4.3
		c-0.1,0-0.3,0-0.4,0c0-0.8,0-1.5,0-2.3c0,0,0,0,0,0c0,0,0,0.1,0,0.1C1.6,8.1,1.6,8.6,1.4,9.2c0,0.1-0.1,0.1-0.2,0.2
		c0-0.1-0.1-0.1-0.1-0.2C1,8.6,0.9,8,0.8,7.5C0.8,8.2,0.8,8.9,0.8,9.7z"/>
	<path class="st1" d="M5.3,2.2c0,0.9,0,1.7,0,2.6c-0.2,0-0.3,0-0.5,0c0-1.5,0-3,0-4.5c0,0,0,0,0.1,0c0.4,0,0.4,0,0.5,0.3
		C5.6,1.4,5.8,2.1,6,2.8c0,0,0,0.1,0.1,0.1c0-0.9,0-1.7,0-2.6c0.2,0,0.3,0,0.5,0c0,1.5,0,3,0,4.5c-0.1,0-0.3,0-0.4,0
		c-0.1,0-0.1-0.1-0.1-0.1C5.8,3.9,5.6,3.2,5.4,2.4C5.3,2.3,5.3,2.3,5.3,2.2C5.3,2.2,5.3,2.2,5.3,2.2z"/>
	<path class="st1" d="M10.6,17.4c0,0.8,0,1.5,0,2.3c-0.2,0-0.3,0-0.4,0c0-1.4,0-2.8,0-4.3c0,0,0,0,0,0c0.4-0.1,0.4-0.1,0.5,0.3
		c0.1,0.7,0.3,1.3,0.5,2c0.1-0.3,0.1-0.5,0.2-0.8c0.1-0.4,0.2-0.9,0.3-1.3c0-0.2,0.1-0.3,0.3-0.3c0,0,0.1,0,0.2,0c0,1.4,0,2.8,0,4.3
		c-0.2,0-0.3,0-0.4,0c0-0.8,0-1.5,0-2.3c0,0,0,0,0,0c0,0.1,0,0.1,0,0.2c-0.1,0.5-0.2,1-0.3,1.6c0,0.1,0,0.2-0.2,0.2
		c-0.1,0-0.1-0.1-0.1-0.2c-0.1-0.5-0.2-1-0.3-1.5C10.7,17.6,10.6,17.5,10.6,17.4C10.6,17.4,10.6,17.4,10.6,17.4z"/>
	<path class="st1" d="M15.9,12.9c0-0.8,0-1.7,0-2.6c0.2,0,0.3,0,0.5,0c0,1.5,0,3,0,4.5c-0.1,0-0.2,0-0.4,0c-0.1,0-0.1-0.1-0.1-0.2
		c-0.2-0.8-0.5-1.5-0.7-2.3c0-0.1,0-0.1-0.1-0.1c0,0.9,0,1.7,0,2.6c-0.2,0-0.3,0-0.5,0c0-1.5,0-3,0-4.5c0.1,0,0.2,0,0.4,0
		c0.1,0,0.1,0.1,0.1,0.2c0.2,0.7,0.5,1.5,0.7,2.2C15.8,12.8,15.8,12.9,15.9,12.9C15.9,12.9,15.9,12.9,15.9,12.9z"/>
	<path class="st1" d="M0.7,11.4c0-0.1,0-0.2,0-0.3c0.6-0.1,1.2-0.2,1.8-0.4c0,0,0,0,0,0c-0.7,0-1.5,0-2.2,0c0-0.2,0-0.3,0-0.4
		c1.4,0,2.8,0,4.2,0c0,0,0,0,0,0c0,0.4,0,0.4-0.4,0.5c-0.6,0.1-1.3,0.3-1.9,0.5c0.8,0.2,1.5,0.3,2.3,0.5c0,0.2,0,0.3,0,0.5
		c-1.4,0-2.8,0-4.2,0c0-0.1,0-0.3,0-0.5c0.7,0,1.5,0,2.2,0c0,0,0,0,0,0C2,11.7,1.4,11.6,0.7,11.4z"/>
	<path class="st1" d="M10.1,0.8c0-0.2,0-0.3,0-0.4c1.4,0,2.8,0,4.2,0c0,0.1,0,0.3,0,0.4c-0.8,0.2-1.5,0.3-2.3,0.5c0,0,0,0,0,0
		c0.8,0.2,1.5,0.3,2.3,0.5c0,0.2,0,0.3,0,0.5c-1.4,0-2.8,0-4.2,0c0-0.1,0-0.3,0-0.5c0.7,0,1.5,0,2.2,0c0,0,0,0,0,0
		c-0.6-0.1-1.2-0.2-1.8-0.4c0-0.1,0-0.2,0-0.3c0.6-0.1,1.2-0.2,1.8-0.4c0,0,0,0,0,0C11.6,0.8,10.9,0.8,10.1,0.8z"/>
	<path class="st1" d="M7.7,15.4c-0.8,0-1.7,0-2.6,0c0-0.2,0-0.3,0-0.5c1.5,0,2.9,0,4.4,0c0,0,0,0,0,0c0,0.4,0,0.4-0.4,0.5
		c-0.7,0.2-1.4,0.4-2,0.7c0,0-0.1,0-0.2,0.1c0.9,0,1.7,0,2.6,0c0,0.2,0,0.3,0,0.5c-1.5,0-2.9,0-4.4,0c0-0.1,0-0.3,0-0.4
		c0-0.1,0.1-0.1,0.2-0.1c0.8-0.2,1.5-0.5,2.3-0.7C7.6,15.4,7.7,15.4,7.7,15.4C7.7,15.4,7.7,15.4,7.7,15.4z"/>
	<path class="st1" d="M19.3,4.8c0,0.5,0,0.5-0.4,0.6c-0.7,0.2-1.4,0.5-2.1,0.7c0.8,0,1.7,0,2.5,0c0,0.2,0,0.3,0,0.5
		c-1.5,0-2.9,0-4.4,0c0-0.1,0-0.2,0-0.3c0-0.1,0-0.2,0.2-0.2c0.8-0.2,1.5-0.5,2.3-0.7c0,0,0.1,0,0.1-0.1c-0.8,0-1.7,0-2.5,0
		c0-0.2,0-0.3,0-0.5C16.4,4.8,17.9,4.8,19.3,4.8z"/>
	<path class="st1" d="M8.2,12.1c0-0.2,0-0.3,0-0.5c0.3,0,0.5,0,0.8,0c0-0.2,0-0.4,0-0.7c-0.4,0-0.7-0.1-1.1,0.2
		c-0.3,0.3-0.6,0.6-0.9,0.8C6.9,12,6.7,12,6.5,12.1c-0.3,0-0.7,0-1,0c-0.3,0-0.4-0.1-0.4-0.4c0-0.3,0-0.6,0-1c0-0.2,0.1-0.3,0.3-0.3
		c0.4,0,0.8,0,1.2,0c0,0.2,0,0.3,0,0.5c-0.3,0-0.6,0-0.9,0c0,0.2,0,0.4,0,0.7c0.3,0,0.5,0,0.8,0c0.1,0,0.1-0.1,0.2-0.1
		c0.4-0.3,0.7-0.6,1.1-0.9c0.1-0.1,0.3-0.2,0.5-0.2c0.3,0,0.7,0,1,0c0.3,0,0.4,0.1,0.4,0.4c0,0.3,0,0.7,0,1c0,0.2-0.1,0.3-0.3,0.3
		C8.9,12.1,8.6,12.1,8.2,12.1z"/>
	<path class="st1" d="M10.1,13.4c0.2,0,0.4,0,0.5,0c0,0.3,0,0.6,0,0.9c0.2,0,0.4,0,0.7,0c0-0.3,0-0.5,0-0.8c0-0.1-0.1-0.1-0.1-0.2
		c-0.3-0.4-0.6-0.7-0.9-1.1c-0.1-0.1-0.2-0.3-0.2-0.5c0-0.3,0-0.7,0-1c0-0.3,0.1-0.4,0.4-0.4c0.3,0,0.7,0,1,0c0.2,0,0.4,0.1,0.4,0.3
		c0,0.3,0,0.7,0,1.1c-0.2,0-0.3,0-0.5,0c0-0.3,0-0.5,0-0.8c-0.2,0-0.4,0-0.7,0c0,0.3,0,0.5,0,0.8c0,0.1,0.1,0.1,0.1,0.2
		c0.3,0.4,0.6,0.7,0.9,1.1c0.1,0.1,0.2,0.3,0.2,0.5c0,0.4,0,0.7,0,1.1c0,0.3-0.1,0.4-0.4,0.4c-0.3,0-0.7,0-1,0
		c-0.2,0-0.3-0.1-0.3-0.3C10.1,14.2,10.1,13.8,10.1,13.4z"/>
	<path class="st1" d="M2,1.7c-0.2,0-0.3,0-0.5,0c0-0.3,0-0.5,0-0.8c-0.2,0-0.4,0-0.6,0c0,0.4-0.1,0.8,0.2,1.1
		c0.3,0.3,0.5,0.6,0.8,0.9C2,3.1,2,3.2,2,3.4c0,0.3,0,0.7,0,1c0,0.3-0.1,0.4-0.4,0.4c-0.3,0-0.6,0-1,0c-0.2,0-0.3-0.1-0.4-0.3
		c0-0.4,0-0.7,0-1.1c0.2,0,0.3,0,0.5,0c0,0.3,0,0.6,0,0.9c0.2,0,0.4,0,0.7,0c0-0.3,0-0.6,0-0.8c0-0.1-0.1-0.1-0.1-0.2
		C1.1,2.9,0.8,2.5,0.5,2.2C0.4,2,0.3,1.9,0.3,1.7c0-0.3,0-0.6,0-0.9c0-0.3,0.1-0.4,0.4-0.4c0.3,0,0.6,0,1,0C1.9,0.3,2,0.4,2,0.7
		C2.1,1,2,1.4,2,1.7z"/>
	<path class="st1" d="M16.4,0.3c0,0.2,0,0.3,0,0.5c-0.3,0-0.6,0-0.9,0c0,0.2,0,0.4,0,0.7c0.3,0,0.5,0,0.8,0c0.1,0,0.1-0.1,0.2-0.1
		c0.4-0.3,0.7-0.6,1.1-0.9c0.1-0.1,0.3-0.2,0.5-0.2c0.3,0,0.6,0,1,0c0.3,0,0.4,0.1,0.4,0.4c0,0.3,0,0.7,0,1c0,0.2-0.1,0.3-0.3,0.3
		c-0.4,0-0.7,0-1.1,0c0-0.2,0-0.3,0-0.5c0.3,0,0.5,0,0.8,0c0-0.2,0-0.4,0-0.7c-0.4,0-0.8-0.1-1.1,0.3c-0.3,0.3-0.6,0.5-0.9,0.8
		C16.7,2,16.5,2,16.4,2.1c-0.3,0-0.7,0-1,0c-0.3,0-0.4-0.1-0.4-0.4c0-0.3,0-0.7,0-1c0-0.3,0.1-0.4,0.4-0.4C15.6,0.3,16,0.3,16.4,0.3
		z"/>
	<path class="st1" d="M15.4,17.4c0-0.5,0-0.9,0-1.3c-0.2,0-0.4,0-0.6,0c0,1.2,0,2.5,0,3.7c-0.2,0-0.3,0-0.5,0c0-1.4,0-2.8,0-4.3
		c0.5,0,0.9,0,1.4,0c0.1,0,0.2,0.2,0.2,0.2c0,0.6,0,1.2,0,1.8c0,0.3-0.2,0.3-0.4,0.3c0.2,0.6,0.4,1.3,0.5,1.9c-0.2,0-0.3,0-0.4,0
		c-0.1,0-0.1-0.1-0.1-0.1c-0.2-0.6-0.3-1.2-0.5-1.8c0-0.1,0-0.3,0-0.4C15.1,17.4,15.2,17.4,15.4,17.4z"/>
	<path class="st1" d="M2.2,15.7C1.6,15.8,1,16,0.4,16.2c0,0,0,0,0,0c0-0.5,0-0.5,0.4-0.6c0.5-0.1,0.9-0.3,1.4-0.4c0.2,0,0.3,0,0.5,0
		c0,0.2,0,0.3,0,0.5c0.5,0,0.9,0,1.3,0c0-0.2,0-0.4,0-0.6c-1.2,0-2.4,0-3.6,0c0-0.2,0-0.3,0-0.5c1.4,0,2.8,0,4.2,0
		c0,0.5,0,0.9,0,1.3c0,0.2-0.1,0.2-0.3,0.3c-0.6,0-1.1,0-1.7,0C2.3,16.1,2.2,15.9,2.2,15.7z"/>
	<path class="st1" d="M5.1,7.3c0.2,0,0.3,0,0.5,0c0-0.5,0-0.9,0-1.3C5.3,6,5.1,6,4.9,6c0,1.2,0,2.5,0,3.7c-0.2,0-0.3,0-0.5,0
		c0-1.4,0-2.8,0-4.3c0.3,0,0.5,0,0.7,0c0.2,0,0.3,0,0.5,0C5.9,5.4,6,5.5,6,5.7c0,0.6,0,1.1,0,1.7C6,7.7,6,7.7,5.6,7.8
		c0.2,0.6,0.3,1.2,0.5,1.9c-0.2,0-0.3,0-0.4,0c0,0-0.1-0.1-0.1-0.1C5.4,9,5.2,8.4,5.1,7.8C5,7.7,5.1,7.5,5.1,7.3z"/>
	<path class="st1" d="M10.2,6.2C10.1,6.1,10.1,6.1,10.2,6.2c0-0.5,0-0.5,0.4-0.6c0.5-0.1,0.9-0.3,1.4-0.4c0.2,0,0.3,0,0.5-0.1
		c0,0.2,0,0.3,0,0.5c0.5,0,0.9,0,1.3,0c0-0.2,0-0.4,0-0.6c-1.2,0-2.4,0-3.6,0c0-0.2,0-0.3,0-0.5c1.4,0,2.8,0,4.2,0
		c0,0.5,0,0.9,0,1.4c0,0.2-0.1,0.2-0.3,0.2c-0.6,0-1.1,0-1.7,0c-0.3,0-0.3-0.2-0.3-0.5C11.4,5.8,10.8,6,10.2,6.2z"/>
	<path class="st1" d="M15.7,3.8c0-0.2,0-0.5,0-0.7c-0.3,0-0.6-0.1-0.8-0.1c0-0.2,0-0.3,0-0.5c1.5,0.2,2.9,0.5,4.4,0.7
		c0,0.2,0,0.4,0,0.6c-1.5,0.2-2.9,0.5-4.4,0.7c0-0.2,0-0.3,0-0.4c0,0,0.1-0.1,0.1-0.1C15.3,3.8,15.5,3.8,15.7,3.8z M16.3,3.7
		c0.6-0.1,1.2-0.2,1.8-0.2c0,0,0,0,0,0c-0.6-0.1-1.2-0.2-1.8-0.2C16.3,3.4,16.3,3.5,16.3,3.7z"/>
	<path class="st1" d="M4.4,4.8c-0.2,0-0.3,0-0.4,0c0,0-0.1-0.1-0.1-0.1c0-0.2,0-0.4-0.1-0.6c0,0-0.1-0.1-0.1-0.1C3.4,4,3.3,4,3.1,4
		C3,4.2,3,4.4,3,4.7c0,0.1-0.1,0.2-0.2,0.2c-0.1,0-0.2,0-0.4,0c0-0.1,0-0.3,0.1-0.4c0.2-1.3,0.4-2.6,0.6-4c0-0.2,0.1-0.2,0.3-0.2
		c0,0,0.1,0,0.1,0c0.2,0,0.2,0,0.3,0.2C3.9,2,4.2,3.4,4.4,4.8z M3.7,3.4C3.6,2.8,3.5,2.1,3.4,1.5c0,0,0,0,0,0
		C3.3,2.1,3.2,2.8,3.1,3.4C3.3,3.4,3.5,3.4,3.7,3.4z"/>
	<path class="st1" d="M9.6,13.2c0,0.2,0,0.4,0,0.6c-1.5,0.2-2.9,0.5-4.4,0.7c0,0,0-0.1,0-0.1c0-0.5,0-0.5,0.4-0.5
		c0.1,0,0.3,0,0.4-0.1c0-0.1,0-0.2,0-0.3c0-0.1,0-0.2,0-0.3c-0.1,0-0.3,0-0.4-0.1c-0.1,0-0.3,0-0.4-0.1c0-0.2,0-0.3,0-0.5
		C6.6,12.7,8.1,12.9,9.6,13.2z M8.4,13.5C8.4,13.5,8.4,13.4,8.4,13.5c-0.6-0.1-1.2-0.2-1.8-0.3c0,0.2,0,0.3,0,0.5
		C7.2,13.6,7.8,13.6,8.4,13.5z"/>
	<path class="st1" d="M14.2,14.8c-0.5,0.1-0.5,0.1-0.6-0.4c0-0.1,0-0.3-0.1-0.4c-0.2,0-0.4,0-0.7,0c0,0.2-0.1,0.4-0.1,0.7
		c0,0.1-0.1,0.2-0.2,0.2c-0.1,0-0.2,0-0.4,0c0.1-0.6,0.2-1.1,0.3-1.7c0.1-0.9,0.3-1.8,0.4-2.7c0-0.1,0.1-0.2,0.2-0.2
		c0.4,0,0.4,0,0.5,0.4C13.8,12.1,14,13.5,14.2,14.8z M13.5,13.4c-0.1-0.6-0.2-1.3-0.2-1.9c0,0,0,0,0,0c-0.1,0.6-0.2,1.2-0.2,1.9
		C13.2,13.4,13.3,13.4,13.5,13.4z"/>
	<path class="st1" d="M4.2,9.7c-0.1,0-0.3,0-0.5,0c0-0.3-0.1-0.5-0.1-0.8c-0.2,0-0.3,0-0.5,0C3.1,8.9,3,9,3,9C3,9.2,3,9.4,3,9.5
		c0,0.2-0.1,0.2-0.2,0.2c-0.1,0-0.2,0-0.3,0c0-0.1,0-0.1,0-0.1c0.2-1.3,0.4-2.7,0.6-4c0-0.2,0.1-0.2,0.3-0.2c0.1,0,0.3-0.1,0.3,0.2
		C3.8,7,4,8.3,4.2,9.7C4.2,9.7,4.2,9.7,4.2,9.7z M3.6,8.3C3.5,7.7,3.4,7.2,3.4,6.6c0,0,0,0,0,0C3.3,7.2,3.2,7.8,3.1,8.3
		C3.3,8.3,3.4,8.3,3.6,8.3z"/>
	<path class="st1" d="M10.1,3c0-0.2,0-0.3,0-0.5c1.4,0.2,2.8,0.4,4.2,0.6c0,0,0,0.1,0,0.1c0,0.4,0,0.4-0.4,0.5
		c-1.2,0.2-2.4,0.4-3.6,0.6c0,0-0.1,0-0.2,0c0-0.2,0-0.3,0-0.5c0.3,0,0.5-0.1,0.8-0.1c0-0.2,0-0.4,0-0.6C10.7,3.1,10.4,3,10.1,3z
		 M13.2,3.4C13.2,3.4,13.2,3.4,13.2,3.4c-0.6-0.1-1.1-0.2-1.7-0.3c0,0.2,0,0.3,0,0.5C12.1,3.6,12.6,3.5,13.2,3.4z"/>
	<path class="st1" d="M12.9,18.9c0,0.2-0.1,0.4-0.1,0.6c0,0.2-0.1,0.2-0.2,0.2c-0.1,0-0.2,0-0.3,0c0.2-1.4,0.4-2.9,0.6-4.3
		c0,0,0,0,0,0c0.5-0.1,0.5-0.1,0.5,0.4c0.2,1.3,0.4,2.6,0.6,3.9c-0.1,0-0.3,0-0.4,0c0,0-0.1-0.1-0.1-0.1c0-0.2,0-0.4-0.1-0.5
		c0-0.1-0.1-0.1-0.1-0.1C13.2,18.9,13.1,18.9,12.9,18.9z M13.2,16.6C13.2,16.6,13.2,16.6,13.2,16.6c-0.1,0.6-0.2,1.2-0.3,1.8
		c0.2,0,0.3,0,0.5,0C13.3,17.8,13.3,17.2,13.2,16.6z"/>
	<path class="st1" d="M0.4,12.5c1.4,0.2,2.8,0.4,4.2,0.6c0,0.2,0,0.3,0,0.5c-1.4,0.2-2.8,0.4-4.2,0.6c0-0.2,0-0.3,0-0.5
		c0.3,0,0.5-0.1,0.8-0.1c0-0.2,0-0.4,0-0.6c-0.3,0-0.5-0.1-0.8-0.1C0.4,12.8,0.4,12.7,0.4,12.5z M1.7,13.6c0.6-0.1,1.2-0.1,1.7-0.2
		c0,0,0,0,0,0c-0.6-0.1-1.1-0.1-1.7-0.2C1.7,13.3,1.7,13.5,1.7,13.6z"/>
	<path class="st1" d="M13.8,9.1c0-0.3,0-0.6,0-0.8c0.2,0,0.4,0,0.5,0c0,0.5,0,0.9,0,1.4c-0.2,0-0.3,0-0.5-0.1
		c-1-0.3-1.9-0.5-2.9-0.8c-0.1,0-0.1,0-0.2-0.1c0,0.3,0,0.6,0,0.9c-0.2,0-0.4,0-0.6,0c0-0.5,0-1,0-1.5c0.2,0,0.3,0,0.5,0.1
		c1,0.3,1.9,0.5,2.9,0.8C13.6,9.1,13.7,9.1,13.8,9.1z"/>
	<path class="st1" d="M8.6,9.1c0.3,0,0.6,0,0.9,0c0,0.2,0,0.4,0,0.6c-0.5,0-1,0-1.5,0c0-0.2,0-0.4,0.1-0.5c0.3-1,0.5-2,0.8-3
		c0,0,0-0.1,0-0.2C8.7,6,8.4,6,8.1,6c0-0.2,0-0.4,0-0.6c0.5,0,0.9,0,1.4,0c0,0.2,0,0.3-0.1,0.5C9.2,7,8.9,8,8.7,9
		C8.7,9.1,8.7,9.1,8.6,9.1z"/>
	<path class="st1" d="M17.9,19.7c0-0.2,0-0.3,0.1-0.5c0.3-1,0.5-2,0.8-3c0,0,0-0.1,0-0.2c-0.3,0-0.5,0-0.8,0c0-0.2,0-0.4,0-0.6
		c0.5,0,0.9,0,1.4,0c0,0.2,0,0.3-0.1,0.5c-0.3,1-0.6,2-0.8,3.1c0,0,0,0.1,0,0.1c0.3,0,0.6,0,0.9,0c0,0.2,0,0.4,0,0.6
		C18.9,19.7,18.4,19.7,17.9,19.7z"/>
	<path class="st1" d="M4,19.1c0-0.3,0-0.6,0-0.8c0.2,0,0.4,0,0.5,0c0,0.5,0,0.9,0,1.4c-0.2,0-0.3,0-0.5-0.1c-1-0.3-1.9-0.5-2.9-0.8
		c-0.1,0-0.1,0-0.2-0.1c0,0.3,0,0.6,0,0.9c-0.2,0-0.4,0-0.6,0c0-0.5,0-1,0-1.5c0.2,0,0.3,0,0.5,0.1c1,0.3,1.9,0.5,2.9,0.8
		C3.8,19.1,3.9,19.1,4,19.1z"/>
	<path class="st1" d="M17.9,14.8c-0.2,0-0.4,0-0.5,0c0-1.3,0-2.6,0-3.9c-0.2,0-0.4,0-0.6,0c0-0.2,0-0.4,0-0.6c0.6,0,1.1,0,1.7,0
		c0,0.2,0,0.4,0,0.6c-0.2,0-0.4,0-0.6,0C17.9,12.2,17.9,13.5,17.9,14.8z"/>
	<path class="st1" d="M8.1,4.8c-0.2,0-0.4,0-0.5,0c0-0.1,0-0.2,0-0.2c0-1.2,0-2.3,0-3.5c0-0.2,0-0.2-0.2-0.2c-0.1,0-0.2,0-0.4,0
		c0-0.2,0-0.4,0-0.6c0.6,0,1.1,0,1.7,0c0,0.2,0,0.4,0,0.6c-0.2,0-0.4,0-0.6,0C8.1,2.2,8.1,3.5,8.1,4.8z"/>
	<path class="st1" d="M9.6,18.8c-0.2,0-0.4,0-0.6,0c0-0.2,0-0.4,0-0.6c-1.3,0-2.6,0-3.8,0c0-0.2,0-0.4,0-0.5c1.3,0,2.5,0,3.8,0
		c0-0.2,0-0.4,0-0.6c0.2,0,0.4,0,0.6,0C9.6,17.6,9.6,18.2,9.6,18.8z"/>
	<path class="st1" d="M14.9,8.2c0-0.2,0-0.4,0-0.5c1.3,0,2.6,0,3.8,0c0-0.2,0-0.4,0-0.6c0.2,0,0.4,0,0.6,0c0,0.6,0,1.1,0,1.7
		c-0.2,0-0.4,0-0.6,0c0-0.2,0-0.4,0-0.6C17.5,8.2,16.2,8.2,14.9,8.2z"/>
	<path class="st1" d="M10.1,7.3c0-0.2,0-0.3,0-0.5c1.2,0,2.4,0,3.6,0c0-0.2,0-0.4,0-0.5c0.2,0,0.4,0,0.6,0c0,0.5,0,1,0,1.6
		c-0.2,0-0.4,0-0.5,0c0-0.2,0-0.3,0-0.5C12.6,7.3,11.4,7.3,10.1,7.3z"/>
	<path class="st1" d="M17.6,15.5c0,0.2,0,0.3,0,0.5c-0.2,0-0.3,0-0.5,0c0,1.2,0,2.5,0,3.7c-0.2,0-0.3,0-0.5,0c0-1.2,0-2.5,0-3.7
		c-0.2,0-0.3,0-0.5,0c0-0.2,0-0.4,0-0.5C16.5,15.5,17,15.5,17.6,15.5z"/>
	<path class="st1" d="M7.2,9.7c-0.2,0-0.3,0-0.5,0c0-1.2,0-2.5,0-3.7C6.5,6,6.4,6,6.2,6c0-0.2,0-0.4,0-0.5c0.5,0,1,0,1.5,0
		c0,0.2,0,0.3,0,0.5C7.6,6,7.4,6,7.2,6C7.2,7.2,7.2,8.5,7.2,9.7z"/>
	<path class="st1" d="M4,16.8c0-0.2,0-0.4,0-0.5c0.2,0,0.4,0,0.5,0c0,0.5,0,1,0,1.6c-0.2,0-0.3,0-0.5,0c0-0.2,0-0.3,0-0.5
		c-1.2,0-2.4,0-3.7,0c0-0.2,0-0.3,0-0.5C1.6,16.8,2.8,16.8,4,16.8z"/>
	<path class="st1" d="M19.4,14.8c-0.2,0-0.3,0-0.5,0c0-1.5,0-3,0-4.5c0.2,0,0.3,0,0.5,0C19.4,11.8,19.4,13.3,19.4,14.8z"/>
	<path class="st1" d="M9.6,4.8c-0.2,0-0.3,0-0.5,0c0-1.5,0-3,0-4.5c0.2,0,0.3,0,0.5,0C9.6,1.8,9.6,3.3,9.6,4.8z"/>
	<path class="st1" d="M5.1,19.7c0-0.2,0-0.3,0-0.5c1.5,0,2.9,0,4.4,0c0,0.2,0,0.3,0,0.5C8.1,19.7,6.6,19.7,5.1,19.7z"/>
	<path class="st1" d="M19.4,9.2c0,0.2,0,0.3,0,0.5c-1.5,0-2.9,0-4.4,0c0-0.2,0-0.3,0-0.5C16.4,9.2,17.9,9.2,19.4,9.2z"/>
</g>
</svg>
