<svg id="Capa_1" data-name="Capa 1" xmlns="http://www.w3.org/2000/svg" viewBox="0 0 512.82 500"><defs><style>.cls-1{fill:#fff;}</style></defs><title>Premiere</title><path class="cls-1" d="M216.84,173.5a62.45,62.45,0,0,0-25.22-4.27c-5.55,0-10.47,0-14.53.21a49.31,49.31,0,0,0-8.76.21h0v71.8c3,.21,5.77.43,8.33.43H188A79.39,79.39,0,0,0,212.61,238a36.69,36.69,0,0,0,17.52-11.32c4.49-5.35,6.63-12.61,6.63-22a35.14,35.14,0,0,0-4.92-19A31,31,0,0,0,216.84,173.5Z" transform="translate(0 0)"/><path class="cls-1" d="M422,0H90.67A90.75,90.75,0,0,0,0,90.81V409.35A90.73,90.73,0,0,0,90.81,500H422.16a90.73,90.73,0,0,0,90.66-90.8V90.66A90.75,90.75,0,0,0,422,0ZM270.55,248.94A73.23,73.23,0,0,1,236.12,275c-14.53,5.34-30.56,7.26-48.08,7.26-5.13,0-8.55,0-10.68-.21s-5.13-.21-9.19-.21v68.59a2.65,2.65,0,0,1-2.28,3H124.36c-1.71,0-2.56-.86-2.56-2.78V130.77c0-1.49.64-2.35,2.14-2.35,3.63,0,7.05,0,12-.21,5.13-.21,10.47-.21,16.24-.43s12-.21,18.59-.43,13-.21,19.45-.21c17.52,0,32,2.14,44,6.62a76.37,76.37,0,0,1,28.64,17.53,67.9,67.9,0,0,1,15.6,24.36,81.92,81.92,0,0,1,4.91,27.77Q283.37,231,270.55,248.94ZM416.26,223.3c0,1.71-1.07,2.35-3.42,2.35a92.75,92.75,0,0,0-23.08,2.13,89,89,0,0,0-17.94,5.77,33.45,33.45,0,0,0-10.9,7.91v109c0,2.13-.86,3-2.78,3H316a3,3,0,0,1-3.4-2.53V231.63c0-5.13,0-10.47-.22-16s-.21-11.11-.43-16.66c0-4.92-.42-9.62-.85-14.53a2,2,0,0,1,1.5-2.35c0-.22.42-.22.64,0l0,0h37.39a4.81,4.81,0,0,1,4.49,3.42,21.78,21.78,0,0,1,1.28,5.34c.43,2.13.86,4.48,1.07,6.62.21,2.35.43,4.92.43,7.69a79.7,79.7,0,0,1,22.86-18.37,66.15,66.15,0,0,1,32.48-8.34,2.65,2.65,0,0,1,3,2.28s0,.05,0,.07Z" transform="translate(0 0)"/></svg>