<svg id="Layer_1" data-name="Layer 1" xmlns="http://www.w3.org/2000/svg" viewBox="0 0 499.83 406.03"><defs><style>.cls-1{fill:#fff;}</style></defs><title>Blender</title><path class="cls-1" d="M260.53,228.27c.93-16.67,9.1-31.36,21.41-41.77a72.65,72.65,0,0,1,92.13,0c12.3,10.41,20.47,25.1,21.41,41.75.93,17.13-6,33-18,44.83-12.31,12-29.83,19.53-49.44,19.53s-37.16-7.53-49.47-19.53C266.45,261.29,259.59,245.38,260.53,228.27Z" transform="translate(0 0)"/><path class="cls-1" d="M153.08,262c.11,6.52,2.19,19.2,5.31,29.1a153.6,153.6,0,0,0,33.16,57.42,171.25,171.25,0,0,0,58,41.67A189.68,189.68,0,0,0,402,389.88,172.61,172.61,0,0,0,460,348a154.79,154.79,0,0,0,33.15-57.53,145,145,0,0,0,5.24-64,148.51,148.51,0,0,0-21.15-57.87,161.5,161.5,0,0,0-38.58-42.53h0L282.5,6.2c-.14-.11-.26-.22-.41-.32-10.24-7.86-27.47-7.83-38.73,0S230.67,27,240.8,35.34h0l65.11,53-198.46.21h-.27C90.74,88.61,75,99.37,71.85,113c-3.21,13.86,7.93,25.36,25,25.42v.06l100.6-.19L17.9,276l-.69.51C.28,289.52-5.2,311.08,5.47,324.73c10.82,13.87,33.84,13.9,51,.08l98-80.18A153,153,0,0,0,153.08,262Zm251.74,36.2c-20.18,20.56-48.44,32.22-79,32.28s-58.89-11.5-79.07-32a94,94,0,0,1-21.58-33.78,87.65,87.65,0,0,1-5-37.74A89.11,89.11,0,0,1,231,191.39a98,98,0,0,1,24-28.55c19.62-16,44.6-24.65,70.73-24.68s51.12,8.54,70.76,24.48a97.63,97.63,0,0,1,24,28.46,89.3,89.3,0,0,1,10.86,35.52,87.87,87.87,0,0,1-5,37.72A94.4,94.4,0,0,1,404.82,298.2Z" transform="translate(0 0)"/></svg>