<svg id="Capa_1" data-name="Capa 1" xmlns="http://www.w3.org/2000/svg" viewBox="0 0 511.45 498.66"><defs><style>.cls-1{fill:#fff;}</style></defs><title>Illustrator</title><path class="cls-1" d="M224.51,222.2l-6.18-19.55q-3.09-9.78-5.66-18.88T208,167.17h-.34a276.76,276.76,0,0,1-7.21,27.44q-4.8,15.45-9.78,31.57T180.94,256h54.2q-2.05-6.87-4.8-15.44T224.51,222.2Z" transform="translate(0 0)"/><path class="cls-1" d="M420.88,0H90.57A90.57,90.57,0,0,0,0,90.57V408.09a90.57,90.57,0,0,0,90.57,90.57H420.88a90.57,90.57,0,0,0,90.57-90.57V90.57A90.57,90.57,0,0,0,420.88,0ZM313.37,352.43h-44.6a3.17,3.17,0,0,1-3.43-2.4l-17.5-50.77H168.58l-16.12,50.09a4,4,0,0,1-4.12,3.09H108.2q-3.44,0-2.4-3.78L174.42,151c.67-2.06,1.35-4.39,2.06-7a74.51,74.51,0,0,0,1.37-13.9,2.11,2.11,0,0,1,1.78-2.4h0a2,2,0,0,1,.6,0H234.8c1.6,0,2.51.57,2.75,1.71L315.43,349C316.12,351.28,315.43,352.43,313.37,352.43ZM385.74,349c0,2.28-.91,3.43-2.74,3.43H341.16c-2.06,0-3.09-1.14-3.09-3.43V185c0-2.06.91-3.09,2.74-3.09H383c1.82,0,2.74,1,2.74,3.09Zm-4.35-192.47a26.29,26.29,0,0,1-19.65,7.55,24.89,24.89,0,0,1-18.87-7.55,27.12,27.12,0,0,1-7.2-19.56,25.19,25.19,0,0,1,7.72-19,26.54,26.54,0,0,1,19-7.38q12.35,0,19.38,7.38a26.55,26.55,0,0,1,7,19A26.78,26.78,0,0,1,381.39,156.53Z" transform="translate(0 0)"/></svg>