<svg id="Capa_1" data-name="Capa 1" xmlns="http://www.w3.org/2000/svg" viewBox="0 0 61.81 27.06"><defs><style>.cls-1{fill:#072133;}</style></defs><title>logoONE</title><path class="cls-1" d="M14.94,26.62c3.28.17,6.58.35,9.88.51.59,0,.87.26.85.86,0,1.06,0,2.13,0,3.19A2.32,2.32,0,0,1,24,33.6a17.15,17.15,0,0,1-6,.91c-4.66.09-9.3-.09-13.95-.32-1.11,0-2.22-.12-3.32-.16C.33,34,.18,34,.27,33.5c.33-1.85.65-3.71.9-5.57A.94.94,0,0,1,2.11,27a51.25,51.25,0,0,1,6.43-.38Z" transform="translate(-0.24 -7.52)"/><path class="cls-1" d="M18.93,16.82l7.58-.3a.51.51,0,0,1,.58.4c.64,2.54.65,5-.87,7.28a1.14,1.14,0,0,1-.83.46,41.75,41.75,0,0,1-9.61.38c-2.54-.16-5.08-.43-7.63-.48-.56,0-.77-.17-.72-.74.11-1.32.17-2.64.27-4A2.45,2.45,0,0,1,9,18a5.22,5.22,0,0,1,2.8-.89l7.15-.3Z" transform="translate(-0.24 -7.52)"/><path class="cls-1" d="M48.46,15.12V12.77c0-1.53,0-3.07,0-4.6,0-.37.1-.48.46-.44a4,4,0,0,0,.91,0c.39,0,.51.08.51.49,0,2.22,0,4.43,0,6.65,0,1,0,2,0,3.05,0,.35-.12.38-.44.43a1.91,1.91,0,0,1-2.12-1.14C46.44,15.07,45,13,43.6,10.93l-.07,0a.85.85,0,0,0-.05.47c0,2.17,0,4.34,0,6.51,0,.36-.11.48-.46.45s-1,.17-1.28-.08-.09-.83-.09-1.27c0-2.92,0-5.85,0-8.78,0-.38.1-.45.48-.49a1.8,1.8,0,0,1,1.94,1c1.3,2.11,2.74,4.14,4.13,6.2C48.25,15,48.27,15.1,48.46,15.12Z" transform="translate(-0.24 -7.52)"/><path class="cls-1" d="M52.49,13c0-1.61,0-3.21,0-4.82,0-.33.05-.47.43-.47,2,0,4,0,5.92,0,.3,0,.42.06.42.39,0,1.17,0,1.17-1.15,1.17H54.69c-.27,0-.37.07-.37.36,0,.74,0,1.49,0,2.23,0,.26.09.33.34.32h3.74c.32,0,.44.07.44.42,0,1.14,0,1.14-1.13,1.14s-2,0-3,0c-.3,0-.4.08-.39.38,0,.76,0,1.52,0,2.27,0,.32.12.38.4.37,1.41,0,2.82,0,4.23,0,.37,0,.46.1.46.46,0,1.11,0,1.11-1.12,1.11-1.8,0-3.61,0-5.41,0-.33,0-.4-.09-.4-.41C52.49,16.29,52.49,14.65,52.49,13Z" transform="translate(-0.24 -7.52)"/><path class="cls-1" d="M20.48,7.53c1.63,0,3.26,0,4.89,0a1.09,1.09,0,0,1,1.19.86,5.38,5.38,0,0,1,.22,1.25,32.61,32.61,0,0,1-.09,4.31c0,.53-.19.78-.79.8-3.26.13-6.51.29-9.76.5A2,2,0,0,1,14,13c.17-1.62.45-3.22.63-4.84.06-.5.28-.59.73-.58C17.08,7.55,18.78,7.54,20.48,7.53Z" transform="translate(-0.24 -7.52)"/><path class="cls-1" d="M31,32.28c0-.62,0-1.24,0-1.87,0-.28.11-.32.35-.32.7,0,1.39,0,2.09,0,.18,0,.29,0,.3.24s-.09.29-.3.29c-.52,0-1,0-1.55,0-.24,0-.3.07-.31.31,0,1.07,0,1.07,1,1.07.23,0,.46,0,.69,0s.28.09.29.3-.13.23-.3.23c-.42,0-.85,0-1.27,0-.9,0-.28.7-.42,1s.11.44.44.43.94,0,1.41,0c.2,0,.36,0,.36.27s-.19.25-.37.25c-.68,0-1.37,0-2.05,0-.34,0-.4-.12-.39-.42,0-.61,0-1.21,0-1.82Z" transform="translate(-0.24 -7.52)"/><path class="cls-1" d="M40.18,34.08a1.66,1.66,0,0,1-.71.45A1.11,1.11,0,0,1,38,33.41c0-.6,0-1.21,0-1.81,0-.25.13-.27.32-.28s.29.06.29.29q0,.8,0,1.59c0,.59.22.88.66.89a.9.9,0,0,0,.89-.94q0-.75,0-1.5c0-.23.05-.33.3-.33s.31.1.3.33c0,.77,0,1.54,0,2.32,0,.18.14.46-.16.54S40.34,34.21,40.18,34.08Z" transform="translate(-0.24 -7.52)"/><path class="cls-1" d="M55.29,31.76a1.52,1.52,0,0,1,1.41-.46.9.9,0,0,1,.78.77,11,11,0,0,1,.07,2.22c0,.22-.15.22-.31.22s-.28-.07-.27-.27V32.7c0-.71-.18-.94-.71-.93a1,1,0,0,0-.93,1c0,.48,0,1,0,1.45,0,.22,0,.33-.3.33s-.25-.14-.25-.33c0-.8,0-1.6,0-2.41,0-.16-.14-.42.2-.45S55.2,31.58,55.29,31.76Z" transform="translate(-0.24 -7.52)"/><path class="cls-1" d="M60,27.48c-.39.09-.66.09-.85-.27s-.36-.52-.54-.79-.16-.13-.25,0-.38.51-.54.78-.4.38-.79.27c.31-.44.59-.87.91-1.26a.46.46,0,0,0,0-.68c-.25-.3-.46-.63-.69-.95s-.09-.24.14-.26.46.14.61.37c.55.83.55.83,1.12,0,.14-.2.24-.41.55-.38s.26.1.14.27c-.25.34-.49.69-.76,1a.35.35,0,0,0,0,.51C59.39,26.56,59.69,27,60,27.48Z" transform="translate(-0.24 -7.52)"/><path class="cls-1" d="M41.38,32.88c0-1.28.92-1.84,2.12-1.53a.29.29,0,0,1,.24.4c-.07.26-.24.08-.36.05-.61-.15-1,0-1.26.42a1.66,1.66,0,0,0,.17,1.67,1.34,1.34,0,0,0,1.17.14c.13,0,.28-.24.36,0a.32.32,0,0,1-.27.44c-1.11.24-2.1,0-2.17-1.47Z" transform="translate(-0.24 -7.52)"/><path class="cls-1" d="M41.19,25.91c0,1,.51,1.41,1.53,1.1.09,0,.25-.23.31,0a.31.31,0,0,1-.17.41,1.52,1.52,0,0,1-2.22-1,2.49,2.49,0,0,1,0-.86,1.49,1.49,0,0,1,2.06-1.2c.19.07.35.16.29.38s-.27.1-.4.07C41.67,24.6,41.19,25,41.19,25.91Z" transform="translate(-0.24 -7.52)"/><path class="cls-1" d="M60.77,25.93v-.68c0-.25,0-.52-.36-.43a.14.14,0,0,1-.19-.13.19.19,0,0,1,.16-.24c.42,0,.45-.33.49-.64s.05-.34.28-.32.17.22.16.35c0,.33,0,.57.43.5.17,0,.26.05.26.23s-.1.28-.28.25c-.37-.06-.43.13-.41.44s0,.82,0,1.23.12.54.47.54c.17,0,.29,0,.28.24s-.1.29-.31.3a.83.83,0,0,1-1-.87c0-.25,0-.51,0-.77Z" transform="translate(-0.24 -7.52)"/><path class="cls-1" d="M47.76,32.86c0-.23,0-.46,0-.68s0-.43-.33-.38c-.08,0-.19,0-.21-.12s0-.24.16-.25c.43,0,.46-.36.54-.66,0-.15,0-.32.25-.31s.18.22.17.35c0,.36,0,.6.46.52.17,0,.24.07.24.24s-.09.25-.25.23c-.41-.07-.48.14-.46.49s0,.79,0,1.18.11.6.52.58c.16,0,.23.05.21.21s0,.24-.22.27a.88.88,0,0,1-1.09-.86c0-.27,0-.54,0-.81Z" transform="translate(-0.24 -7.52)"/><path class="cls-1" d="M44.26,25.25v1.91c0,.21,0,.38-.29.38s-.3-.15-.3-.37v-3.4c0-.18,0-.37-.17-.48s-.17-.11-.15-.21.16-.11.26-.13c.63-.06.65,0,.65.57Z" transform="translate(-0.24 -7.52)"/><path class="cls-1" d="M36,24.82a1.12,1.12,0,0,1,.81-.48c.16,0,.27,0,.28.21s0,.28-.21.33c-.64.13-.82.37-.82,1,0,.46,0,.91,0,1.36,0,.23-.07.28-.29.28s-.28-.07-.28-.28c0-.82,0-1.63,0-2.45,0-.16-.1-.42.15-.46S35.91,24.58,36,24.82Z" transform="translate(-0.24 -7.52)"/><path class="cls-1" d="M50.4,32.92c0,.43,0,.85,0,1.28,0,.22-.06.32-.3.32s-.26-.14-.26-.32c0-.59,0-1.18,0-1.77,0-.3.11-.65-.27-.83-.07,0-.09-.16,0-.2.22-.15.47-.07.71-.06s.15.19.15.31Z" transform="translate(-0.24 -7.52)"/><path class="cls-1" d="M50.05,30.12c.2,0,.35,0,.35.26s-.13.27-.33.26-.36,0-.38-.26S49.85,30.1,50.05,30.12Z" transform="translate(-0.24 -7.52)"/><path class="cls-1" d="M53.3,27.08c0-1.2,0-2.39,0-3.59,0-.22,0-.38-.29-.38s-.32.13-.32.37c0,.6,0,1.21,0,1.82,0,.33.06.66.06,1s-.08.21-.17,0l-.44-.63c-.53-.78-1.06-1.55-1.57-2.33a.51.51,0,0,0-.59-.22c-.25.05-.13.27-.14.41v3.55c0,.23-.05.46.32.45s.23-.26.23-.43c0-.84,0-1.69,0-2.54,0-.12-.06-.27.09-.36a.44.44,0,0,1,.09.11c.67,1,1.34,2,2,3a.47.47,0,0,0,.54.22C53.41,27.48,53.3,27.24,53.3,27.08Z" transform="translate(-0.24 -7.52)"/><path class="cls-1" d="M39.83,12.17a4.82,4.82,0,0,0-2.13-4,5.16,5.16,0,0,0-3.46-.64,4.12,4.12,0,0,0-3.7,2.91,7.72,7.72,0,0,0,.09,5.34,3.94,3.94,0,0,0,2.66,2.47,6.1,6.1,0,0,0,3.06.09,4,4,0,0,0,2.81-2.1A6.41,6.41,0,0,0,39.83,13C39.83,12.75,39.85,12.46,39.83,12.17Zm-2.06,2.61a2.64,2.64,0,0,1-3,2.13,2.72,2.72,0,0,1-2.63-2.77c0-.38,0-.76-.07-1a5,5,0,0,1,.69-3,2.3,2.3,0,0,1,1.56-1c2-.33,3.29.56,3.6,2.65A7.25,7.25,0,0,1,37.77,14.78Z" transform="translate(-0.24 -7.52)"/><path class="cls-1" d="M34.57,24.32A1.66,1.66,0,0,0,33,23a1.81,1.81,0,0,0-1.94,1,2.84,2.84,0,0,0-.26,1.32,4,4,0,0,0,0,.5,1.8,1.8,0,0,0,1.43,1.72,1.89,1.89,0,0,0,2.06-.7A2.93,2.93,0,0,0,34.57,24.32ZM34,26.12a1.16,1.16,0,0,1-1.13.94,1.2,1.2,0,0,1-1.31-.76,2.68,2.68,0,0,1,0-2.08,1.22,1.22,0,0,1,1.33-.66,1.25,1.25,0,0,1,1.12,1,6.45,6.45,0,0,1,.07.79A5.1,5.1,0,0,1,34,26.12Z" transform="translate(-0.24 -7.52)"/><path class="cls-1" d="M37.16,34.09c0-1.27,0-2.55,0-3.82,0-.21,0-.34-.29-.33s-.31.11-.3.33c0,.42,0,.84,0,1.24-.15,0-.2-.06-.28-.09a1.31,1.31,0,0,0-1.91.69,2.18,2.18,0,0,0,0,1.68,1.24,1.24,0,0,0,1.57.73c.26-.07.42-.28.67-.42.1.17,0,.45.3.41S37.16,34.24,37.16,34.09ZM36.08,34a.88.88,0,0,1-.48.09c-.55-.07-.87-.73-.73-1.54A.84.84,0,0,1,36,31.77c.52.11.63.32.63,1.19A.88.88,0,0,1,36.08,34Z" transform="translate(-0.24 -7.52)"/><path class="cls-1" d="M56.47,26.12c.14,0,.28,0,.29-.19,0-.61-.09-1.34-.73-1.56a1.44,1.44,0,0,0-1.82.58,2.2,2.2,0,0,0,0,2,1.79,1.79,0,0,0,2.28.48.33.33,0,0,0,.11-.4c-.08-.21-.21-.05-.3,0a2,2,0,0,1-1.07.08.81.81,0,0,1-.59-.57c-.09-.25-.08-.41.25-.38a6,6,0,0,0,.73,0h.82Zm-1-.48H55c-.45,0-.52-.1-.3-.49a.79.79,0,0,1,.8-.4.68.68,0,0,1,.65.47c.11.3.09.47-.29.42A3.38,3.38,0,0,0,55.43,25.64Z" transform="translate(-0.24 -7.52)"/><path class="cls-1" d="M46.89,24.36a1.38,1.38,0,0,0-2,1.32v.5a1.31,1.31,0,0,0,.71,1.23,2,2,0,0,0,1.75,0c.18-.07.18-.24.13-.38s-.21-.07-.32-.05-.36.1-.53.12a1,1,0,0,1-1.08-.51c-.18-.39-.13-.47.29-.47h1.5c.11,0,.23,0,.28-.14A1.42,1.42,0,0,0,46.89,24.36Zm-.11,1.28a3.38,3.38,0,0,0-.45,0h-.41c-.14,0-.33.09-.4-.09s0-.3.12-.42a.8.8,0,0,1,.86-.37.65.65,0,0,1,.58.49C47.16,25.53,47.12,25.68,46.78,25.64Z" transform="translate(-0.24 -7.52)"/><path class="cls-1" d="M52.61,31.26a1.47,1.47,0,0,0-1.55,1.67,1.45,1.45,0,0,0,1.53,1.63c1,0,1.5-.58,1.52-1.64A1.46,1.46,0,0,0,52.61,31.26Zm.72,2.45a.84.84,0,0,1-.86.37.79.79,0,0,1-.69-.51,1.53,1.53,0,0,1-.12-.67c0-.83.4-1.23,1.1-1.14a.76.76,0,0,1,.56.34A1.73,1.73,0,0,1,53.33,33.71Z" transform="translate(-0.24 -7.52)"/><path class="cls-1" d="M46.83,32.22c0-.59-.29-.81-.87-.92a3.22,3.22,0,0,0-1.16.08.29.29,0,0,0-.27.39c.06.27.24.09.36.07a2.54,2.54,0,0,1,1-.07.47.47,0,0,1,.39.53c0,.33-.28.19-.45.2a2.75,2.75,0,0,0-1,.15,1,1,0,0,0-.6,1.06,1,1,0,0,0,.88.84,1.23,1.23,0,0,0,1.21-.5c.11.21,0,.49.33.46s.19-.12.19-.25C46.84,33.58,46.87,32.9,46.83,32.22Zm-1.46,1.89c-.37,0-.53-.23-.53-.59s.24-.58.94-.58c.24,0,.53-.09.5.35A.91.91,0,0,1,45.37,34.11Z" transform="translate(-0.24 -7.52)"/><path class="cls-1" d="M39.94,27.05c0-.59,0-1.18,0-1.77a.88.88,0,0,0-.49-.86,2.24,2.24,0,0,0-1.65,0c-.18.05-.18.23-.15.38s.19.08.29.06a2.54,2.54,0,0,1,1-.11.48.48,0,0,1,.43.54c0,.35-.27.21-.43.22a4.11,4.11,0,0,0-.86.08,1,1,0,0,0-.72,1,1,1,0,0,0,.76.94,1.3,1.3,0,0,0,1.3-.46c.14.17.08.49.38.4S39.94,27.21,39.94,27.05Zm-1.45.08a.53.53,0,0,1-.56-.58c0-.41.27-.59,1-.59.19,0,.53-.15.5.32A.93.93,0,0,1,38.49,27.13Z" transform="translate(-0.24 -7.52)"/></svg>